<svg xmlns="http://www.w3.org/2000/svg" viewBox="0 0 1600 1100" role="img" aria-labelledby="title desc">
  <title>Portal Overview</title>
  <desc>Gradient placeholder artwork for Portal Overview</desc>
  <defs>
    <linearGradient id="bg" x1="0" x2="1" y1="0" y2="1">
      <stop offset="0%" stop-color="#1D3461" />
      <stop offset="100%" stop-color="#376996" />
    </linearGradient>
    <radialGradient id="orb" cx="30%" cy="30%" r="70%">
      <stop offset="0%" stop-color="rgba(255,255,255,0.42)" />
      <stop offset="100%" stop-color="rgba(255,255,255,0)" />
    </radialGradient>
  </defs>
  <rect width="1600" height="1100" fill="url(#bg)" rx="44" ry="44"/>
  <circle cx="280" cy="240" r="270" fill="rgba(255,255,255,0.14)"/>
  <circle cx="1280" cy="180" r="220" fill="rgba(255,255,255,0.10)"/>
  <circle cx="1180" cy="880" r="320" fill="rgba(255,255,255,0.08)"/>
  <path d="M180 840C360 640 550 610 760 700C970 790 1150 760 1420 540V1000H180Z" fill="rgba(255,255,255,0.14)"/>
  <path d="M0 1040C230 830 420 790 620 850C830 910 1030 900 1600 650V1100H0Z" fill="rgba(14,30,58,0.16)"/>
  <g fill="none" stroke="rgba(255,255,255,0.36)" stroke-width="4">
    <path d="M180 220H560" />
    <path d="M180 276H720" />
    <path d="M180 332H470" />
  </g>
  <g fill="rgba(255,255,255,0.18)">
    <rect x="180" y="430" width="320" height="180" rx="28"/>
    <rect x="540" y="430" width="220" height="180" rx="28"/>
    <rect x="800" y="430" width="420" height="180" rx="28"/>
  </g>
  <text x="180" y="845" fill="#ffffff" font-family="Inter, Arial, sans-serif" font-size="104" font-weight="800">Portal Overview</text>
  <text x="180" y="925" fill="rgba(255,255,255,0.82)" font-family="Inter, Arial, sans-serif" font-size="34">Replace this placeholder with project imagery.</text>
</svg>
